<svg id="Capa_1" enable-background="new 0 0 512 512" height="512" viewBox="0 0 512 512" width="512" xmlns="http://www.w3.org/2000/svg"><g><g><path d="m256 512c-58.143 0-112.727-26.796-153.699-75.453-40.659-48.286-63.051-112.405-63.051-180.547s22.392-132.261 63.051-180.547c40.972-48.657 95.556-75.453 153.699-75.453s112.728 26.796 153.699 75.453c40.659 48.286 63.051 112.405 63.051 180.547s-22.392 132.261-63.051 180.547c-40.971 48.657-95.556 75.453-153.699 75.453zm0-497c-111.245 0-201.75 108.112-201.75 241s90.505 241 201.75 241 201.75-108.112 201.75-241-90.505-241-201.75-241z" fill="#ffe187"/></g><g><path d="m256 472.75c-68.142 0-132.262-22.392-180.547-63.051-48.656-40.971-75.453-95.556-75.453-153.699s26.797-112.727 75.453-153.699c48.285-40.659 112.405-63.051 180.547-63.051s132.262 22.392 180.547 63.051c48.656 40.972 75.453 95.556 75.453 153.699s-26.797 112.728-75.453 153.699c-48.285 40.659-112.405 63.051-180.547 63.051zm0-418.5c-132.888 0-241 90.505-241 201.75s108.112 201.75 241 201.75 241-90.505 241-201.75-108.112-201.75-241-201.75z" fill="#ffd26f"/></g><path d="m417.364 256c0 93.888-67.475 169-161.364 169-4.359 0-8.679.836-12.955.514-3.204-.242-6.383-.572-9.535-.988-5.105-.675-10.138-10.212-15.09-11.33-6.471-1.46-12.802 5.347-18.97 3.172-45.144-15.919-81.549-50.36-100.091-94.196-8.603-20.339-4.723-42.7-4.723-66.172 0-37.821 3.714-72.757 24.602-100.995 28.558-38.608 73.076-64.696 123.807-68.518 4.276-.323 8.596.513 12.955.513 93.888 0 161.364 75.112 161.364 169z" fill="#95c7f8"/><path d="m256 86c-4.359 0-8.678.166-12.955.488 87.837 6.619 157.046 79.982 157.046 169.512s-69.209 162.894-157.045 169.512c4.276.322 8.595.488 12.954.488 93.888 0 170-76.112 170-170s-76.112-170-170-170z" fill="#75b5f8"/><g fill="#ade4a4"><path d="m86 256c0 23.375 4.719 45.646 13.255 65.916 5.692 13.517 25.855 9.419 25.855-5.248v-18.403c0-17.636 9.396-33.937 24.657-42.777l59.522-34.478c10.284-5.957 16.615-16.941 16.615-28.825 0-11.655-6.091-22.462-16.061-28.498l-33.177-20.084c-19.208-11.627-44.066-6.643-57.42 11.407-20.892 28.236-33.246 63.169-33.246 100.99z"/><path d="m268.243 296.883-81.716-19.672c-8.148-1.961-15.987 4.214-15.987 12.595v50.651c0 4.581 1.82 8.974 5.059 12.214l20.061 20.061c2.43 2.43 3.794 5.725 3.794 9.16v34.464c10.888 3.839 22.281 6.605 34.057 8.161v-33.484c0-3.436 1.365-6.731 3.794-9.16l35.801-35.801c3.239-3.239 5.059-7.633 5.059-12.214v-24.38c.001-5.987-4.101-11.194-9.922-12.595z"/><path d="m285.471 172.596h-20.085c-8.495 0-15.381-6.887-15.381-15.381 0-8.495 6.887-15.381 15.381-15.381h20.085c8.495 0 15.381 6.886 15.381 15.381.001 8.495-6.886 15.381-15.381 15.381z"/><path d="m417.364 256c0-20.332 5.061-39.828-1.485-57.901h-101.4c-17.361 0-31.434 14.074-31.434 31.434 0 17.361 14.074 31.434 31.434 31.434 15.595 0 28.237 12.642 28.237 28.237v48.636c0 27.723 35.655 39.348 51.759 16.783 19.848-27.809 22.889-61.851 22.889-98.623z"/></g><path d="m394.475 354.625c19.848-27.811 31.525-61.853 31.525-98.625 0-20.332-3.575-39.828-10.121-57.901h-25.915c6.547 18.073 10.127 37.567 10.127 57.901 0 41.255-14.704 79.07-39.145 108.511 11.241 4.377 25.077 1.957 33.529-9.886z" fill="#8bd5a7"/><path d="m394.743 95.608c0 9.477 6.296 17.482 14.933 20.063 1.902.568 3.917-.127 6.003-.127 11.563 0 19.936-8.374 19.936-19.936s-8.374-19.936-19.936-19.936c-2.086 0-4.101-.695-6.003-.127-8.637 2.581-14.933 10.587-14.933 20.063z" fill="#ade4a4"/><path d="m415.679 74.672c-2.087 0-4.098.315-6 .883 8.637 2.581 14.936 10.577 14.936 20.053s-6.299 17.472-14.936 20.053c1.902.568 3.913.883 6 .883 11.563 0 20.936-9.374 20.936-20.936s-9.373-20.936-20.936-20.936z" fill="#8bd5a7"/><path d="m75.385 95.608c0 9.477 6.296 17.482 14.933 20.063 1.902.568 3.917-.127 6.003-.127 11.563 0 19.936-8.374 19.936-19.936s-8.373-19.936-19.936-19.936c-2.086 0-4.101-.695-6.003-.127-8.637 2.581-14.933 10.587-14.933 20.063z" fill="#ade4a4"/><path d="m96.321 74.672c-2.087 0-4.098.315-6 .883 8.637 2.581 14.936 10.577 14.936 20.053s-6.299 17.472-14.936 20.053c1.902.568 3.913.883 6 .883 11.563 0 20.936-9.374 20.936-20.936s-9.373-20.936-20.936-20.936z" fill="#8bd5a7"/><path d="m394.743 416.392c0 9.477 6.296 17.482 14.933 20.063 1.902.568 3.917-.127 6.003-.127 11.563 0 19.936-8.374 19.936-19.936s-8.374-19.936-19.936-19.936c-2.086 0-4.101-.695-6.003-.127-8.637 2.581-14.933 10.586-14.933 20.063z" fill="#ade4a4"/><path d="m415.679 395.456c-2.087 0-4.098.315-6 .883 8.637 2.581 14.936 10.577 14.936 20.053s-6.299 17.472-14.936 20.053c1.902.568 3.913.883 6 .883 11.563 0 20.936-9.374 20.936-20.936s-9.373-20.936-20.936-20.936z" fill="#8bd5a7"/><path d="m75.385 416.392c0 9.477 6.296 17.482 14.933 20.063 1.902.568 3.917-.127 6.003-.127 11.563 0 19.936-8.374 19.936-19.936s-8.373-19.936-19.936-19.936c-2.086 0-4.101-.695-6.003-.127-8.637 2.581-14.933 10.586-14.933 20.063z" fill="#ade4a4"/><path d="m96.321 395.456c-2.087 0-4.098.315-6 .883 8.637 2.581 14.936 10.577 14.936 20.053s-6.299 17.472-14.936 20.053c1.902.568 3.913.883 6 .883 11.563 0 20.936-9.374 20.936-20.936s-9.373-20.936-20.936-20.936z" fill="#8bd5a7"/></g></svg>